# xmcd CD database file
#
# Track frame offsets:
#	150
#	19499
#	42307
#	75724
#	103237
#	117049
#	131719
#	147612
#	163382
#	188082
#	203319
#	218277
#	235637
#	257612
#
# Disc length: 3609 seconds
#
# Revision: 0
# Processed by: cddbd v1.5.2PL0 Copyright (c) Steve Scherf et al.
# Submitted via: CDex 1.70beta2
#
DISCID=c00e170e
DTITLE=Ry Coder et al - Buena Vista Social Club
DYEAR=1900
DGENRE=Salsa
TTITLE0=Chan Chan
TTITLE1=De Camino a La Vereda
TTITLE2=El Cuarto de Tula
TTITLE3=Pueblo Nuevo
TTITLE4=Dos Gardenias
TTITLE5=Y Tu Que Has Hecho
TTITLE6=Veinte Anos
TTITLE7=El Carretero
TTITLE8=Candela
TTITLE9=Amor de Loca Juventud
TTITLE10=Orgullecida
TTITLE11=Murmullo
TTITLE12=Buena Vista Social Club
TTITLE13=La Bayamesa
EXTD=
EXTT0=
EXTT1=
EXTT2=
EXTT3=
EXTT4=
EXTT5=
EXTT6=
EXTT7=
EXTT8=
EXTT9=
EXTT10=
EXTT11=
EXTT12=
EXTT13=
PLAYORDER=
